<svg xmlns="http://www.w3.org/2000/svg" width="512" height="512" viewBox="0 0 512 512">
  <defs>
    <linearGradient id="bg" x1="0" y1="0" x2="0" y2="1">
      <stop offset="0" stop-color="#3F82EC"/>
      <stop offset="1" stop-color="#2361C7"/>
    </linearGradient>
    <clipPath id="body"><path d="M512.00 256.00 L511.97 314.10 L511.88 332.66 L511.72 346.14 L511.51 357.10 L511.23 366.50 L510.89 374.81 L510.49 382.30 L510.02 389.15 L509.49 395.48 L508.90 401.37 L508.25 406.89 L507.53 412.09 L506.75 417.00 L505.91 421.67 L505.00 426.10 L504.02 430.33 L502.98 434.37 L501.87 438.24 L500.69 441.94 L499.45 445.49 L498.14 448.90 L496.76 452.18 L495.31 455.33 L493.78 458.37 L492.19 461.28 L490.52 464.09 L488.77 466.79 L486.95 469.39 L485.05 471.90 L483.07 474.31 L481.01 476.63 L478.86 478.86 L476.63 481.01 L474.31 483.07 L471.90 485.05 L469.39 486.95 L466.79 488.77 L464.09 490.52 L461.28 492.19 L458.37 493.78 L455.33 495.31 L452.18 496.76 L448.90 498.14 L445.49 499.45 L441.94 500.69 L438.24 501.87 L434.37 502.98 L430.33 504.02 L426.10 505.00 L421.67 505.91 L417.00 506.75 L412.09 507.53 L406.89 508.25 L401.37 508.90 L395.48 509.49 L389.15 510.02 L382.30 510.49 L374.81 510.89 L366.50 511.23 L357.10 511.51 L346.14 511.72 L332.66 511.88 L314.10 511.97 L256.00 512.00 L197.90 511.97 L179.34 511.88 L165.86 511.72 L154.90 511.51 L145.50 511.23 L137.19 510.89 L129.70 510.49 L122.85 510.02 L116.52 509.49 L110.63 508.90 L105.11 508.25 L99.91 507.53 L95.00 506.75 L90.33 505.91 L85.90 505.00 L81.67 504.02 L77.63 502.98 L73.76 501.87 L70.06 500.69 L66.51 499.45 L63.10 498.14 L59.82 496.76 L56.67 495.31 L53.63 493.78 L50.72 492.19 L47.91 490.52 L45.21 488.77 L42.61 486.95 L40.10 485.05 L37.69 483.07 L35.37 481.01 L33.14 478.86 L30.99 476.63 L28.93 474.31 L26.95 471.90 L25.05 469.39 L23.23 466.79 L21.48 464.09 L19.81 461.28 L18.22 458.37 L16.69 455.33 L15.24 452.18 L13.86 448.90 L12.55 445.49 L11.31 441.94 L10.13 438.24 L9.02 434.37 L7.98 430.33 L7.00 426.10 L6.09 421.67 L5.25 417.00 L4.47 412.09 L3.75 406.89 L3.10 401.37 L2.51 395.48 L1.98 389.15 L1.51 382.30 L1.11 374.81 L0.77 366.50 L0.49 357.10 L0.28 346.14 L0.12 332.66 L0.03 314.10 L0.00 256.00 L0.03 197.90 L0.12 179.34 L0.28 165.86 L0.49 154.90 L0.77 145.50 L1.11 137.19 L1.51 129.70 L1.98 122.85 L2.51 116.52 L3.10 110.63 L3.75 105.11 L4.47 99.91 L5.25 95.00 L6.09 90.33 L7.00 85.90 L7.98 81.67 L9.02 77.63 L10.13 73.76 L11.31 70.06 L12.55 66.51 L13.86 63.10 L15.24 59.82 L16.69 56.67 L18.22 53.63 L19.81 50.72 L21.48 47.91 L23.23 45.21 L25.05 42.61 L26.95 40.10 L28.93 37.69 L30.99 35.37 L33.14 33.14 L35.37 30.99 L37.69 28.93 L40.10 26.95 L42.61 25.05 L45.21 23.23 L47.91 21.48 L50.72 19.81 L53.63 18.22 L56.67 16.69 L59.82 15.24 L63.10 13.86 L66.51 12.55 L70.06 11.31 L73.76 10.13 L77.63 9.02 L81.67 7.98 L85.90 7.00 L90.33 6.09 L95.00 5.25 L99.91 4.47 L105.11 3.75 L110.63 3.10 L116.52 2.51 L122.85 1.98 L129.70 1.51 L137.19 1.11 L145.50 0.77 L154.90 0.49 L165.86 0.28 L179.34 0.12 L197.90 0.03 L256.00 0.00 L314.10 0.03 L332.66 0.12 L346.14 0.28 L357.10 0.49 L366.50 0.77 L374.81 1.11 L382.30 1.51 L389.15 1.98 L395.48 2.51 L401.37 3.10 L406.89 3.75 L412.09 4.47 L417.00 5.25 L421.67 6.09 L426.10 7.00 L430.33 7.98 L434.37 9.02 L438.24 10.13 L441.94 11.31 L445.49 12.55 L448.90 13.86 L452.18 15.24 L455.33 16.69 L458.37 18.22 L461.28 19.81 L464.09 21.48 L466.79 23.23 L469.39 25.05 L471.90 26.95 L474.31 28.93 L476.63 30.99 L478.86 33.14 L481.01 35.37 L483.07 37.69 L485.05 40.10 L486.95 42.61 L488.77 45.21 L490.52 47.91 L492.19 50.72 L493.78 53.63 L495.31 56.67 L496.76 59.82 L498.14 63.10 L499.45 66.51 L500.69 70.06 L501.87 73.76 L502.98 77.63 L504.02 81.67 L505.00 85.90 L505.91 90.33 L506.75 95.00 L507.53 99.91 L508.25 105.11 L508.90 110.63 L509.49 116.52 L510.02 122.85 L510.49 129.70 L510.89 137.19 L511.23 145.50 L511.51 154.90 L511.72 165.86 L511.88 179.34 L511.97 197.90 Z"/></clipPath>
  </defs>
  <path d="M512.00 256.00 L511.97 314.10 L511.88 332.66 L511.72 346.14 L511.51 357.10 L511.23 366.50 L510.89 374.81 L510.49 382.30 L510.02 389.15 L509.49 395.48 L508.90 401.37 L508.25 406.89 L507.53 412.09 L506.75 417.00 L505.91 421.67 L505.00 426.10 L504.02 430.33 L502.98 434.37 L501.87 438.24 L500.69 441.94 L499.45 445.49 L498.14 448.90 L496.76 452.18 L495.31 455.33 L493.78 458.37 L492.19 461.28 L490.52 464.09 L488.77 466.79 L486.95 469.39 L485.05 471.90 L483.07 474.31 L481.01 476.63 L478.86 478.86 L476.63 481.01 L474.31 483.07 L471.90 485.05 L469.39 486.95 L466.79 488.77 L464.09 490.52 L461.28 492.19 L458.37 493.78 L455.33 495.31 L452.18 496.76 L448.90 498.14 L445.49 499.45 L441.94 500.69 L438.24 501.87 L434.37 502.98 L430.33 504.02 L426.10 505.00 L421.67 505.91 L417.00 506.75 L412.09 507.53 L406.89 508.25 L401.37 508.90 L395.48 509.49 L389.15 510.02 L382.30 510.49 L374.81 510.89 L366.50 511.23 L357.10 511.51 L346.14 511.72 L332.66 511.88 L314.10 511.97 L256.00 512.00 L197.90 511.97 L179.34 511.88 L165.86 511.72 L154.90 511.51 L145.50 511.23 L137.19 510.89 L129.70 510.49 L122.85 510.02 L116.52 509.49 L110.63 508.90 L105.11 508.25 L99.91 507.53 L95.00 506.75 L90.33 505.91 L85.90 505.00 L81.67 504.02 L77.63 502.98 L73.76 501.87 L70.06 500.69 L66.51 499.45 L63.10 498.14 L59.82 496.76 L56.67 495.31 L53.63 493.78 L50.72 492.19 L47.91 490.52 L45.21 488.77 L42.61 486.95 L40.10 485.05 L37.69 483.07 L35.37 481.01 L33.14 478.86 L30.99 476.63 L28.93 474.31 L26.95 471.90 L25.05 469.39 L23.23 466.79 L21.48 464.09 L19.81 461.28 L18.22 458.37 L16.69 455.33 L15.24 452.18 L13.86 448.90 L12.55 445.49 L11.31 441.94 L10.13 438.24 L9.02 434.37 L7.98 430.33 L7.00 426.10 L6.09 421.67 L5.25 417.00 L4.47 412.09 L3.75 406.89 L3.10 401.37 L2.51 395.48 L1.98 389.15 L1.51 382.30 L1.11 374.81 L0.77 366.50 L0.49 357.10 L0.28 346.14 L0.12 332.66 L0.03 314.10 L0.00 256.00 L0.03 197.90 L0.12 179.34 L0.28 165.86 L0.49 154.90 L0.77 145.50 L1.11 137.19 L1.51 129.70 L1.98 122.85 L2.51 116.52 L3.10 110.63 L3.75 105.11 L4.47 99.91 L5.25 95.00 L6.09 90.33 L7.00 85.90 L7.98 81.67 L9.02 77.63 L10.13 73.76 L11.31 70.06 L12.55 66.51 L13.86 63.10 L15.24 59.82 L16.69 56.67 L18.22 53.63 L19.81 50.72 L21.48 47.91 L23.23 45.21 L25.05 42.61 L26.95 40.10 L28.93 37.69 L30.99 35.37 L33.14 33.14 L35.37 30.99 L37.69 28.93 L40.10 26.95 L42.61 25.05 L45.21 23.23 L47.91 21.48 L50.72 19.81 L53.63 18.22 L56.67 16.69 L59.82 15.24 L63.10 13.86 L66.51 12.55 L70.06 11.31 L73.76 10.13 L77.63 9.02 L81.67 7.98 L85.90 7.00 L90.33 6.09 L95.00 5.25 L99.91 4.47 L105.11 3.75 L110.63 3.10 L116.52 2.51 L122.85 1.98 L129.70 1.51 L137.19 1.11 L145.50 0.77 L154.90 0.49 L165.86 0.28 L179.34 0.12 L197.90 0.03 L256.00 0.00 L314.10 0.03 L332.66 0.12 L346.14 0.28 L357.10 0.49 L366.50 0.77 L374.81 1.11 L382.30 1.51 L389.15 1.98 L395.48 2.51 L401.37 3.10 L406.89 3.75 L412.09 4.47 L417.00 5.25 L421.67 6.09 L426.10 7.00 L430.33 7.98 L434.37 9.02 L438.24 10.13 L441.94 11.31 L445.49 12.55 L448.90 13.86 L452.18 15.24 L455.33 16.69 L458.37 18.22 L461.28 19.81 L464.09 21.48 L466.79 23.23 L469.39 25.05 L471.90 26.95 L474.31 28.93 L476.63 30.99 L478.86 33.14 L481.01 35.37 L483.07 37.69 L485.05 40.10 L486.95 42.61 L488.77 45.21 L490.52 47.91 L492.19 50.72 L493.78 53.63 L495.31 56.67 L496.76 59.82 L498.14 63.10 L499.45 66.51 L500.69 70.06 L501.87 73.76 L502.98 77.63 L504.02 81.67 L505.00 85.90 L505.91 90.33 L506.75 95.00 L507.53 99.91 L508.25 105.11 L508.90 110.63 L509.49 116.52 L510.02 122.85 L510.49 129.70 L510.89 137.19 L511.23 145.50 L511.51 154.90 L511.72 165.86 L511.88 179.34 L511.97 197.90 Z" fill="url(#bg)"/>
  <g clip-path="url(#body)">
    <g transform="scale(1.000000)">
    <rect x="-40" y="380" width="592" height="184" fill="#B9D4FB"/>
      <rect x="-40" y="380" width="592" height="16" fill="#8FB6F0"/>
      <path d="M-40 76 Q104 150 162 246" stroke="#8FB6F0" stroke-width="44" stroke-linecap="round" fill="none"/>
      <path d="M162 246 Q256 202 350 246" stroke="#8FB6F0" stroke-width="44" stroke-linecap="round" fill="none"/>
      <rect x="150" y="104" width="212" height="76" rx="38" fill="#FFFFFF"/>
      <rect x="190" y="160" width="132" height="236" fill="#FFFFFF"/>
      <rect x="140" y="346" width="232" height="58" rx="16" fill="#FFFFFF"/>
      <path d="M162 246 Q256 298 350 246" stroke="#8FB6F0" stroke-width="44" stroke-linecap="round" fill="none"/>
      <path d="M350 246 Q396 300 390 368" stroke="#8FB6F0" stroke-width="44" stroke-linecap="round" fill="none"/>
    </g>
  </g>
</svg>
