<svg xmlns="http://www.w3.org/2000/svg" viewBox="0 0 512 512">
  <defs>
    <linearGradient id="bgGrad" x1="0" y1="0" x2="0" y2="1">
      <stop offset="0" stop-color="#3F82EC"/><stop offset="1" stop-color="#2361C7"/>
    </linearGradient>
  </defs>
  <rect width="512" height="512" rx="115" fill="url(#bgGrad)"/>
  <rect x="191" y="120" width="62" height="62" rx="10" fill="#B9D4FB"/><rect x="259" y="120" width="62" height="62" rx="10" fill="#FFFFFF"/>
  <rect x="157" y="188" width="62" height="62" rx="10" fill="#FFFFFF"/><rect x="225" y="188" width="62" height="62" rx="10" fill="#B9D4FB"/><rect x="293" y="188" width="62" height="62" rx="10" fill="#FFFFFF"/>
  <path d="M112 256 L400 256 L366 324 Q362 332 352 332 L160 332 Q150 332 146 324 Z" fill="#FFFFFF"/>
  <path d="M96 384 q40 -22 80 0 t80 0 t80 0 t80 0" stroke="#B9D4FB" stroke-width="16" stroke-linecap="round" fill="none"/>
</svg>
