<svg xmlns="http://www.w3.org/2000/svg" viewBox="0 0 400 152">
  <rect x="0" y="0" width="400" height="64" rx="12" fill="#E9EDF3"/>
  <g transform="translate(150,14)">
    <rect x="8" y="8" width="20" height="20" rx="6" fill="none" stroke="#1B2432" stroke-width="3.5"/>
    <rect x="15" y="15" width="6" height="6" rx="1.5" fill="#1B2432"/>
  </g>
  <path d="M184 32 L200 32" stroke="#8695AE" stroke-width="2.5" stroke-linecap="round"/>
  <path d="M195 26 L202 32 L195 38" stroke="#8695AE" stroke-width="2.5" stroke-linecap="round" stroke-linejoin="round" fill="none"/>
  <g transform="translate(214,14)">
    <rect x="11" y="4" width="14" height="6" rx="3" fill="#1B2432"/>
    <rect x="14" y="8" width="8" height="18" fill="#1B2432"/>
    <rect x="9" y="26" width="18" height="6" rx="2" fill="#1B2432"/>
    <path d="M9 16 Q18 21.5 27 16" stroke="#1B2432" stroke-width="2.5" stroke-linecap="round" fill="none"/>
    <path d="M9 16 Q5.5 21 5 27" stroke="#1B2432" stroke-width="2.5" stroke-linecap="round" fill="none"/>
  </g>

  <rect x="0" y="88" width="400" height="64" rx="12" fill="#1B2534"/>
  <g transform="translate(150,102)">
    <rect x="8" y="8" width="20" height="20" rx="6" fill="none" stroke="#F1F4FA" stroke-width="3.5"/>
    <rect x="15" y="15" width="6" height="6" rx="1.5" fill="#F1F4FA"/>
  </g>
  <path d="M184 120 L200 120" stroke="#6E7E9A" stroke-width="2.5" stroke-linecap="round"/>
  <path d="M195 114 L202 120 L195 126" stroke="#6E7E9A" stroke-width="2.5" stroke-linecap="round" stroke-linejoin="round" fill="none"/>
  <g transform="translate(214,102)">
    <rect x="11" y="4" width="14" height="6" rx="3" fill="#F1F4FA"/>
    <rect x="14" y="8" width="8" height="18" fill="#F1F4FA"/>
    <rect x="9" y="26" width="18" height="6" rx="2" fill="#F1F4FA"/>
    <path d="M9 16 Q18 21.5 27 16" stroke="#F1F4FA" stroke-width="2.5" stroke-linecap="round" fill="none"/>
    <path d="M9 16 Q5.5 21 5 27" stroke="#F1F4FA" stroke-width="2.5" stroke-linecap="round" fill="none"/>
  </g>
</svg>
