<svg xmlns="http://www.w3.org/2000/svg" viewBox="0 0 512 512">
  <defs>
    <linearGradient id="bgGrad" x1="0" y1="0" x2="0" y2="1">
      <stop offset="0" stop-color="#3F82EC"/><stop offset="1" stop-color="#2361C7"/>
    </linearGradient>
    <clipPath id="clipSq"><rect width="512" height="512" rx="115"/></clipPath>
  </defs>
  <rect width="512" height="512" rx="115" fill="url(#bgGrad)"/>
  <g clip-path="url(#clipSq)">
    <path d="M-16 372 q40 -20 80 0 t80 0 t80 0 t80 0 t80 0 t80 0 t80 0" stroke="#B9D4FB" stroke-width="16" stroke-linecap="round" fill="none" opacity="0.55"/>
    <path d="M-56 428 q40 -20 80 0 t80 0 t80 0 t80 0 t80 0 t80 0 t80 0" stroke="#B9D4FB" stroke-width="16" stroke-linecap="round" fill="none"/>
    <path d="M172 226 Q256 190 340 226" stroke="#8FB6F0" stroke-width="28" stroke-linecap="round" fill="none"/>
    <path d="M172 262 Q256 226 340 262" stroke="#8FB6F0" stroke-width="28" stroke-linecap="round" fill="none"/>
    <rect x="166" y="112" width="180" height="64" rx="32" fill="#FFFFFF"/><rect x="198" y="158" width="116" height="196" fill="#FFFFFF"/><rect x="146" y="336" width="220" height="60" rx="16" fill="#FFFFFF"/>
    <path d="M172 226 Q256 272 340 226" stroke="#8FB6F0" stroke-width="28" stroke-linecap="round" fill="none"/>
    <path d="M172 262 Q256 308 340 262" stroke="#8FB6F0" stroke-width="28" stroke-linecap="round" fill="none"/>
    <path d="M172 262 Q124 316 114 380" stroke="#8FB6F0" stroke-width="28" stroke-linecap="round" fill="none"/>
  </g>
</svg>
